<svg width="200" height="60" viewBox="0 0 200 60" xmlns="http://www.w3.org/2000/svg">
  <!-- Fond avec dégradé -->
  <defs>
    <linearGradient id="bgGradient" x1="0%" y1="0%" x2="100%" y2="100%">
      <stop offset="0%" style="stop-color:#2563eb;stop-opacity:1" />
      <stop offset="100%" style="stop-color:#1d4ed8;stop-opacity:1" />
    </linearGradient>
    <linearGradient id="iconGradient" x1="0%" y1="0%" x2="100%" y2="100%">
      <stop offset="0%" style="stop-color:#10b981;stop-opacity:1" />
      <stop offset="100%" style="stop-color:#059669;stop-opacity:1" />
    </linearGradient>
  </defs>
  
  <!-- Fond du logo -->
  <rect width="200" height="60" rx="12" fill="url(#bgGradient)"/>
  
  <!-- Icône principale - Croix médicale avec graphique -->
  <g transform="translate(15, 15)">
    <!-- Croix médicale -->
    <rect x="8" y="2" width="4" height="26" fill="white" rx="2"/>
    <rect x="2" y="12" width="16" height="4" fill="white" rx="2"/>
    
    <!-- Graphique/Tableau -->
    <g transform="translate(25, 5)">
      <!-- Lignes du tableau -->
      <rect x="0" y="0" width="20" height="2" fill="url(#iconGradient)" rx="1"/>
      <rect x="0" y="4" width="16" height="2" fill="url(#iconGradient)" rx="1"/>
      <rect x="0" y="8" width="18" height="2" fill="url(#iconGradient)" rx="1"/>
      <rect x="0" y="12" width="14" height="2" fill="url(#iconGradient)" rx="1"/>
      <rect x="0" y="16" width="20" height="2" fill="url(#iconGradient)" rx="1"/>
      
      <!-- Barres de graphique -->
      <rect x="22" y="12" width="3" height="6" fill="#f97316" rx="1"/>
      <rect x="26" y="8" width="3" height="10" fill="#f97316" rx="1"/>
      <rect x="30" y="10" width="3" height="8" fill="#f97316" rx="1"/>
    </g>
  </g>
  
  <!-- Texte du logo -->
  <text x="70" y="25" font-family="Inter, sans-serif" font-size="16" font-weight="700" fill="white">
    Bulletin
  </text>
  <text x="70" y="42" font-family="Inter, sans-serif" font-size="12" font-weight="500" fill="#e2e8f0">
    Generator
  </text>
</svg>
